<svg xmlns="http://www.w3.org/2000/svg" width="45" height="45" viewBox="0 0 45 45">
  <path id="calendar" d="M1.205,16.875H43.795A1.141,1.141,0,0,1,45,17.93V40.781C45,43.11,42.84,45,40.179,45H4.821C2.16,45,0,43.11,0,40.781V17.93A1.141,1.141,0,0,1,1.205,16.875ZM45,13.008V9.844c0-2.329-2.16-4.219-4.821-4.219H35.357V1.055A1.141,1.141,0,0,0,34.152,0H30.134a1.141,1.141,0,0,0-1.205,1.055v4.57H16.071V1.055A1.141,1.141,0,0,0,14.866,0H10.848A1.141,1.141,0,0,0,9.643,1.055v4.57H4.821C2.16,5.625,0,7.515,0,9.844v3.164a1.141,1.141,0,0,0,1.205,1.055H43.795A1.141,1.141,0,0,0,45,13.008Z" fill="#fff"/>
</svg>
