<svg id="Groupe_609" data-name="Groupe 609" xmlns="http://www.w3.org/2000/svg" width="40" height="40" viewBox="0 0 40 40">
  <path id="Tracé_1" data-name="Tracé 1" d="M22,2A20.26,20.26,0,0,0,2,22a20,20,0,0,0,8,15.839V38h.2a19.4,19.4,0,0,0,23.6,0H34v-.16A20,20,0,0,0,42,22,20.26,20.26,0,0,0,22,2ZM14.14,35.859A6,6,0,0,1,20,31.139h4a6,6,0,0,1,5.86,4.72A15.5,15.5,0,0,1,14.14,35.859Zm19.08-2.58A10,10,0,0,0,24,27.139H20a10,10,0,0,0-9.22,6.14A16,16,0,0,1,6,22,16.2,16.2,0,0,1,22,6,16.2,16.2,0,0,1,38,22,16,16,0,0,1,33.22,33.279Z" transform="translate(-2 -2)" fill="#fff"/>
  <path id="Tracé_2" data-name="Tracé 2" d="M14.476,6A6.418,6.418,0,0,0,9.853,7.806,6.088,6.088,0,0,0,8,12.312a6.088,6.088,0,0,0,1.852,4.506,6.418,6.418,0,0,0,4.624,1.805A6.418,6.418,0,0,0,19.1,16.819a6.088,6.088,0,0,0,1.852-4.506A6.088,6.088,0,0,0,19.1,7.806,6.418,6.418,0,0,0,14.476,6Zm0,9.468a3.137,3.137,0,0,1-2.336-.879,2.972,2.972,0,0,1-.9-2.277,2.972,2.972,0,0,1,.9-2.277,3.137,3.137,0,0,1,2.336-.879,3.137,3.137,0,0,1,2.336.879,2.972,2.972,0,0,1,.9,2.277,2.972,2.972,0,0,1-.9,2.277A3.137,3.137,0,0,1,14.476,15.468Z" transform="translate(5.524 2.041)" fill="#fff"/>
</svg>
