<svg xmlns="http://www.w3.org/2000/svg" width="45" height="45" viewBox="0 0 45 45">
  <path id="Tracé_5" data-name="Tracé 5" d="M2.518,31.86l4.6,7.785a2.325,2.325,0,0,0,3.139.821l3.208-1.813a18.65,18.65,0,0,0,4.355,2.5v3.6a2.274,2.274,0,0,0,2.3,2.25h9.193a2.274,2.274,0,0,0,2.3-2.25v-3.6a18.7,18.7,0,0,0,4.355-2.5l3.208,1.813a2.334,2.334,0,0,0,3.139-.821l4.6-7.785a2.233,2.233,0,0,0-.839-3.074L42.913,27a16.928,16.928,0,0,0,0-5l3.153-1.784A2.229,2.229,0,0,0,46.9,17.14L42.3,9.355a2.325,2.325,0,0,0-3.139-.821l-3.208,1.813a18.557,18.557,0,0,0-4.353-2.5V4.25A2.274,2.274,0,0,0,29.305,2H20.113a2.274,2.274,0,0,0-2.3,2.25v3.6a18.7,18.7,0,0,0-4.355,2.5L10.253,8.534A2.339,2.339,0,0,0,8.51,8.307a2.29,2.29,0,0,0-1.4,1.048l-4.6,7.785a2.233,2.233,0,0,0,.839,3.073L6.51,22a16.928,16.928,0,0,0,0,5L3.357,28.786a2.229,2.229,0,0,0-.839,3.074ZM24.709,15.5a9,9,0,1,1-9.193,9A9.107,9.107,0,0,1,24.709,15.5Z" transform="translate(-2.21 -2)" fill="#fff"/>
</svg>
